<mxfile host="app.diagrams.net" modified="2022-04-13T09:19:27.295Z" agent="5.0 (Windows NT 10.0; Win64; x64) AppleWebKit/537.36 (KHTML, like Gecko) Chrome/100.0.4896.88 Safari/537.36" etag="7w2gfUIHi70-2XPN8U7Y" version="15.7.3" type="github">
  <diagram id="r_B-xDujlz0dtQDz_Qxb" name="Page-1">
    <mxGraphModel dx="1504" dy="644" grid="1" gridSize="10" guides="1" tooltips="1" connect="1" arrows="1" fold="1" page="1" pageScale="1" pageWidth="827" pageHeight="1169" math="0" shadow="0">
      <root>
        <mxCell id="0" />
        <mxCell id="1" parent="0" />
        <mxCell id="SWzxU_4cyLOVcUurz7a2-1" value="1" style="whiteSpace=wrap;html=1;aspect=fixed;" vertex="1" parent="1">
          <mxGeometry x="80" y="40" width="50" height="50" as="geometry" />
        </mxCell>
        <mxCell id="SWzxU_4cyLOVcUurz7a2-9" value="" style="edgeStyle=orthogonalEdgeStyle;rounded=0;orthogonalLoop=1;jettySize=auto;html=1;" edge="1" parent="1" source="SWzxU_4cyLOVcUurz7a2-2" target="SWzxU_4cyLOVcUurz7a2-3">
          <mxGeometry relative="1" as="geometry" />
        </mxCell>
        <mxCell id="SWzxU_4cyLOVcUurz7a2-2" value="2" style="whiteSpace=wrap;html=1;aspect=fixed;" vertex="1" parent="1">
          <mxGeometry x="170" y="40" width="50" height="50" as="geometry" />
        </mxCell>
        <mxCell id="SWzxU_4cyLOVcUurz7a2-10" value="" style="edgeStyle=orthogonalEdgeStyle;rounded=0;orthogonalLoop=1;jettySize=auto;html=1;" edge="1" parent="1" source="SWzxU_4cyLOVcUurz7a2-3" target="SWzxU_4cyLOVcUurz7a2-4">
          <mxGeometry relative="1" as="geometry" />
        </mxCell>
        <mxCell id="SWzxU_4cyLOVcUurz7a2-3" value="3" style="whiteSpace=wrap;html=1;aspect=fixed;" vertex="1" parent="1">
          <mxGeometry x="260" y="40" width="50" height="50" as="geometry" />
        </mxCell>
        <mxCell id="SWzxU_4cyLOVcUurz7a2-11" value="" style="edgeStyle=orthogonalEdgeStyle;rounded=0;orthogonalLoop=1;jettySize=auto;html=1;" edge="1" parent="1" source="SWzxU_4cyLOVcUurz7a2-4" target="SWzxU_4cyLOVcUurz7a2-5">
          <mxGeometry relative="1" as="geometry" />
        </mxCell>
        <mxCell id="SWzxU_4cyLOVcUurz7a2-4" value="4" style="whiteSpace=wrap;html=1;aspect=fixed;" vertex="1" parent="1">
          <mxGeometry x="340" y="40" width="50" height="50" as="geometry" />
        </mxCell>
        <mxCell id="SWzxU_4cyLOVcUurz7a2-5" value="5" style="whiteSpace=wrap;html=1;aspect=fixed;" vertex="1" parent="1">
          <mxGeometry x="430" y="40" width="50" height="50" as="geometry" />
        </mxCell>
        <mxCell id="SWzxU_4cyLOVcUurz7a2-6" value="" style="endArrow=classic;html=1;rounded=0;entryX=0;entryY=0.5;entryDx=0;entryDy=0;exitX=1;exitY=0.5;exitDx=0;exitDy=0;" edge="1" parent="1" source="SWzxU_4cyLOVcUurz7a2-1" target="SWzxU_4cyLOVcUurz7a2-2">
          <mxGeometry width="50" height="50" relative="1" as="geometry">
            <mxPoint x="410" y="280" as="sourcePoint" />
            <mxPoint x="440" y="260" as="targetPoint" />
          </mxGeometry>
        </mxCell>
        <mxCell id="SWzxU_4cyLOVcUurz7a2-12" value="" style="endArrow=classic;html=1;rounded=0;entryX=0.5;entryY=1;entryDx=0;entryDy=0;" edge="1" parent="1" target="SWzxU_4cyLOVcUurz7a2-1">
          <mxGeometry width="50" height="50" relative="1" as="geometry">
            <mxPoint x="105" y="130" as="sourcePoint" />
            <mxPoint x="450" y="180" as="targetPoint" />
          </mxGeometry>
        </mxCell>
        <mxCell id="SWzxU_4cyLOVcUurz7a2-13" value="" style="endArrow=classic;html=1;rounded=0;" edge="1" parent="1">
          <mxGeometry width="50" height="50" relative="1" as="geometry">
            <mxPoint x="40" y="130" as="sourcePoint" />
            <mxPoint x="40" y="90" as="targetPoint" />
          </mxGeometry>
        </mxCell>
        <mxCell id="SWzxU_4cyLOVcUurz7a2-14" value="pre" style="text;html=1;resizable=0;autosize=1;align=center;verticalAlign=middle;points=[];fillColor=none;strokeColor=none;rounded=0;" vertex="1" parent="1">
          <mxGeometry x="25" y="140" width="30" height="20" as="geometry" />
        </mxCell>
        <mxCell id="SWzxU_4cyLOVcUurz7a2-15" value="cur" style="text;html=1;resizable=0;autosize=1;align=center;verticalAlign=middle;points=[];fillColor=none;strokeColor=none;rounded=0;" vertex="1" parent="1">
          <mxGeometry x="90" y="140" width="30" height="20" as="geometry" />
        </mxCell>
        <mxCell id="SWzxU_4cyLOVcUurz7a2-16" value="null" style="text;html=1;resizable=0;autosize=1;align=center;verticalAlign=middle;points=[];fillColor=none;strokeColor=none;rounded=0;" vertex="1" parent="1">
          <mxGeometry x="25" y="60" width="30" height="20" as="geometry" />
        </mxCell>
        <mxCell id="SWzxU_4cyLOVcUurz7a2-45" style="edgeStyle=orthogonalEdgeStyle;rounded=0;orthogonalLoop=1;jettySize=auto;html=1;exitX=0;exitY=0.5;exitDx=0;exitDy=0;" edge="1" parent="1" source="SWzxU_4cyLOVcUurz7a2-31" target="SWzxU_4cyLOVcUurz7a2-44">
          <mxGeometry relative="1" as="geometry" />
        </mxCell>
        <mxCell id="SWzxU_4cyLOVcUurz7a2-31" value="1" style="whiteSpace=wrap;html=1;aspect=fixed;" vertex="1" parent="1">
          <mxGeometry x="80" y="210" width="50" height="50" as="geometry" />
        </mxCell>
        <mxCell id="SWzxU_4cyLOVcUurz7a2-32" value="" style="edgeStyle=orthogonalEdgeStyle;rounded=0;orthogonalLoop=1;jettySize=auto;html=1;" edge="1" parent="1" source="SWzxU_4cyLOVcUurz7a2-33" target="SWzxU_4cyLOVcUurz7a2-35">
          <mxGeometry relative="1" as="geometry" />
        </mxCell>
        <mxCell id="SWzxU_4cyLOVcUurz7a2-33" value="2" style="whiteSpace=wrap;html=1;aspect=fixed;" vertex="1" parent="1">
          <mxGeometry x="170" y="210" width="50" height="50" as="geometry" />
        </mxCell>
        <mxCell id="SWzxU_4cyLOVcUurz7a2-34" value="" style="edgeStyle=orthogonalEdgeStyle;rounded=0;orthogonalLoop=1;jettySize=auto;html=1;" edge="1" parent="1" source="SWzxU_4cyLOVcUurz7a2-35" target="SWzxU_4cyLOVcUurz7a2-37">
          <mxGeometry relative="1" as="geometry" />
        </mxCell>
        <mxCell id="SWzxU_4cyLOVcUurz7a2-35" value="3" style="whiteSpace=wrap;html=1;aspect=fixed;" vertex="1" parent="1">
          <mxGeometry x="260" y="210" width="50" height="50" as="geometry" />
        </mxCell>
        <mxCell id="SWzxU_4cyLOVcUurz7a2-36" value="" style="edgeStyle=orthogonalEdgeStyle;rounded=0;orthogonalLoop=1;jettySize=auto;html=1;" edge="1" parent="1" source="SWzxU_4cyLOVcUurz7a2-37" target="SWzxU_4cyLOVcUurz7a2-38">
          <mxGeometry relative="1" as="geometry" />
        </mxCell>
        <mxCell id="SWzxU_4cyLOVcUurz7a2-37" value="4" style="whiteSpace=wrap;html=1;aspect=fixed;" vertex="1" parent="1">
          <mxGeometry x="340" y="210" width="50" height="50" as="geometry" />
        </mxCell>
        <mxCell id="SWzxU_4cyLOVcUurz7a2-38" value="5" style="whiteSpace=wrap;html=1;aspect=fixed;" vertex="1" parent="1">
          <mxGeometry x="430" y="210" width="50" height="50" as="geometry" />
        </mxCell>
        <mxCell id="SWzxU_4cyLOVcUurz7a2-40" value="" style="endArrow=classic;html=1;rounded=0;entryX=0.5;entryY=1;entryDx=0;entryDy=0;" edge="1" parent="1" target="SWzxU_4cyLOVcUurz7a2-31">
          <mxGeometry width="50" height="50" relative="1" as="geometry">
            <mxPoint x="105" y="300" as="sourcePoint" />
            <mxPoint x="450" y="350" as="targetPoint" />
            <Array as="points">
              <mxPoint x="105" y="280" />
            </Array>
          </mxGeometry>
        </mxCell>
        <mxCell id="SWzxU_4cyLOVcUurz7a2-43" value="pre" style="text;html=1;resizable=0;autosize=1;align=center;verticalAlign=middle;points=[];fillColor=none;strokeColor=none;rounded=0;" vertex="1" parent="1">
          <mxGeometry x="90" y="310" width="30" height="20" as="geometry" />
        </mxCell>
        <mxCell id="SWzxU_4cyLOVcUurz7a2-44" value="null" style="text;html=1;resizable=0;autosize=1;align=center;verticalAlign=middle;points=[];fillColor=none;strokeColor=none;rounded=0;" vertex="1" parent="1">
          <mxGeometry x="25" y="225" width="30" height="20" as="geometry" />
        </mxCell>
        <mxCell id="SWzxU_4cyLOVcUurz7a2-46" value="cur" style="text;html=1;resizable=0;autosize=1;align=center;verticalAlign=middle;points=[];fillColor=none;strokeColor=none;rounded=0;" vertex="1" parent="1">
          <mxGeometry x="180" y="310" width="30" height="20" as="geometry" />
        </mxCell>
        <mxCell id="SWzxU_4cyLOVcUurz7a2-47" value="" style="endArrow=classic;html=1;rounded=0;entryX=0.5;entryY=1;entryDx=0;entryDy=0;" edge="1" parent="1" target="SWzxU_4cyLOVcUurz7a2-33">
          <mxGeometry width="50" height="50" relative="1" as="geometry">
            <mxPoint x="195" y="300" as="sourcePoint" />
            <mxPoint x="39.57999999999993" y="250" as="targetPoint" />
          </mxGeometry>
        </mxCell>
        <mxCell id="SWzxU_4cyLOVcUurz7a2-48" value="null" style="text;html=1;resizable=0;autosize=1;align=center;verticalAlign=middle;points=[];fillColor=none;strokeColor=none;rounded=0;" vertex="1" parent="1">
          <mxGeometry x="130" y="250" width="30" height="20" as="geometry" />
        </mxCell>
        <mxCell id="SWzxU_4cyLOVcUurz7a2-51" style="edgeStyle=orthogonalEdgeStyle;rounded=0;orthogonalLoop=1;jettySize=auto;html=1;exitX=0;exitY=0.5;exitDx=0;exitDy=0;" edge="1" parent="1" source="SWzxU_4cyLOVcUurz7a2-52" target="SWzxU_4cyLOVcUurz7a2-62">
          <mxGeometry relative="1" as="geometry" />
        </mxCell>
        <mxCell id="SWzxU_4cyLOVcUurz7a2-52" value="1" style="whiteSpace=wrap;html=1;aspect=fixed;" vertex="1" parent="1">
          <mxGeometry x="80" y="370" width="50" height="50" as="geometry" />
        </mxCell>
        <mxCell id="SWzxU_4cyLOVcUurz7a2-70" style="edgeStyle=orthogonalEdgeStyle;rounded=0;orthogonalLoop=1;jettySize=auto;html=1;exitX=0;exitY=0.5;exitDx=0;exitDy=0;entryX=1;entryY=0.5;entryDx=0;entryDy=0;" edge="1" parent="1" source="SWzxU_4cyLOVcUurz7a2-54" target="SWzxU_4cyLOVcUurz7a2-52">
          <mxGeometry relative="1" as="geometry" />
        </mxCell>
        <mxCell id="SWzxU_4cyLOVcUurz7a2-54" value="2" style="whiteSpace=wrap;html=1;aspect=fixed;" vertex="1" parent="1">
          <mxGeometry x="170" y="370" width="50" height="50" as="geometry" />
        </mxCell>
        <mxCell id="SWzxU_4cyLOVcUurz7a2-55" value="" style="edgeStyle=orthogonalEdgeStyle;rounded=0;orthogonalLoop=1;jettySize=auto;html=1;" edge="1" parent="1" source="SWzxU_4cyLOVcUurz7a2-56" target="SWzxU_4cyLOVcUurz7a2-58">
          <mxGeometry relative="1" as="geometry" />
        </mxCell>
        <mxCell id="SWzxU_4cyLOVcUurz7a2-56" value="3" style="whiteSpace=wrap;html=1;aspect=fixed;" vertex="1" parent="1">
          <mxGeometry x="260" y="370" width="50" height="50" as="geometry" />
        </mxCell>
        <mxCell id="SWzxU_4cyLOVcUurz7a2-57" value="" style="edgeStyle=orthogonalEdgeStyle;rounded=0;orthogonalLoop=1;jettySize=auto;html=1;" edge="1" parent="1" source="SWzxU_4cyLOVcUurz7a2-58" target="SWzxU_4cyLOVcUurz7a2-59">
          <mxGeometry relative="1" as="geometry" />
        </mxCell>
        <mxCell id="SWzxU_4cyLOVcUurz7a2-58" value="4" style="whiteSpace=wrap;html=1;aspect=fixed;" vertex="1" parent="1">
          <mxGeometry x="340" y="370" width="50" height="50" as="geometry" />
        </mxCell>
        <mxCell id="SWzxU_4cyLOVcUurz7a2-59" value="5" style="whiteSpace=wrap;html=1;aspect=fixed;" vertex="1" parent="1">
          <mxGeometry x="430" y="370" width="50" height="50" as="geometry" />
        </mxCell>
        <mxCell id="SWzxU_4cyLOVcUurz7a2-62" value="null" style="text;html=1;resizable=0;autosize=1;align=center;verticalAlign=middle;points=[];fillColor=none;strokeColor=none;rounded=0;" vertex="1" parent="1">
          <mxGeometry x="25" y="385" width="30" height="20" as="geometry" />
        </mxCell>
        <mxCell id="SWzxU_4cyLOVcUurz7a2-63" value="pre" style="text;html=1;resizable=0;autosize=1;align=center;verticalAlign=middle;points=[];fillColor=none;strokeColor=none;rounded=0;" vertex="1" parent="1">
          <mxGeometry x="180" y="470" width="30" height="20" as="geometry" />
        </mxCell>
        <mxCell id="SWzxU_4cyLOVcUurz7a2-64" value="" style="endArrow=classic;html=1;rounded=0;entryX=0.5;entryY=1;entryDx=0;entryDy=0;" edge="1" parent="1" target="SWzxU_4cyLOVcUurz7a2-54">
          <mxGeometry width="50" height="50" relative="1" as="geometry">
            <mxPoint x="195" y="460" as="sourcePoint" />
            <mxPoint x="39.57999999999993" y="410" as="targetPoint" />
            <Array as="points">
              <mxPoint x="195" y="440" />
            </Array>
          </mxGeometry>
        </mxCell>
        <mxCell id="SWzxU_4cyLOVcUurz7a2-71" value="null" style="text;html=1;resizable=0;autosize=1;align=center;verticalAlign=middle;points=[];fillColor=none;strokeColor=none;rounded=0;" vertex="1" parent="1">
          <mxGeometry x="230" y="405" width="30" height="20" as="geometry" />
        </mxCell>
        <mxCell id="SWzxU_4cyLOVcUurz7a2-74" value="" style="endArrow=classic;html=1;rounded=0;" edge="1" parent="1">
          <mxGeometry width="50" height="50" relative="1" as="geometry">
            <mxPoint x="290" y="460.0000000000001" as="sourcePoint" />
            <mxPoint x="290" y="420" as="targetPoint" />
          </mxGeometry>
        </mxCell>
        <mxCell id="SWzxU_4cyLOVcUurz7a2-75" value="cur" style="text;html=1;resizable=0;autosize=1;align=center;verticalAlign=middle;points=[];fillColor=none;strokeColor=none;rounded=0;" vertex="1" parent="1">
          <mxGeometry x="270" y="470" width="30" height="20" as="geometry" />
        </mxCell>
        <mxCell id="SWzxU_4cyLOVcUurz7a2-76" style="edgeStyle=orthogonalEdgeStyle;rounded=0;orthogonalLoop=1;jettySize=auto;html=1;exitX=0;exitY=0.5;exitDx=0;exitDy=0;" edge="1" parent="1" source="SWzxU_4cyLOVcUurz7a2-77" target="SWzxU_4cyLOVcUurz7a2-85">
          <mxGeometry relative="1" as="geometry" />
        </mxCell>
        <mxCell id="SWzxU_4cyLOVcUurz7a2-77" value="1" style="whiteSpace=wrap;html=1;aspect=fixed;" vertex="1" parent="1">
          <mxGeometry x="80" y="510" width="50" height="50" as="geometry" />
        </mxCell>
        <mxCell id="SWzxU_4cyLOVcUurz7a2-78" style="edgeStyle=orthogonalEdgeStyle;rounded=0;orthogonalLoop=1;jettySize=auto;html=1;exitX=0;exitY=0.5;exitDx=0;exitDy=0;entryX=1;entryY=0.5;entryDx=0;entryDy=0;" edge="1" parent="1" source="SWzxU_4cyLOVcUurz7a2-79" target="SWzxU_4cyLOVcUurz7a2-77">
          <mxGeometry relative="1" as="geometry" />
        </mxCell>
        <mxCell id="SWzxU_4cyLOVcUurz7a2-79" value="2" style="whiteSpace=wrap;html=1;aspect=fixed;" vertex="1" parent="1">
          <mxGeometry x="170" y="510" width="50" height="50" as="geometry" />
        </mxCell>
        <mxCell id="SWzxU_4cyLOVcUurz7a2-91" value="" style="edgeStyle=orthogonalEdgeStyle;rounded=0;orthogonalLoop=1;jettySize=auto;html=1;" edge="1" parent="1" source="SWzxU_4cyLOVcUurz7a2-81" target="SWzxU_4cyLOVcUurz7a2-79">
          <mxGeometry relative="1" as="geometry" />
        </mxCell>
        <mxCell id="SWzxU_4cyLOVcUurz7a2-81" value="3" style="whiteSpace=wrap;html=1;aspect=fixed;" vertex="1" parent="1">
          <mxGeometry x="260" y="510" width="50" height="50" as="geometry" />
        </mxCell>
        <mxCell id="SWzxU_4cyLOVcUurz7a2-82" value="" style="edgeStyle=orthogonalEdgeStyle;rounded=0;orthogonalLoop=1;jettySize=auto;html=1;" edge="1" parent="1" source="SWzxU_4cyLOVcUurz7a2-83" target="SWzxU_4cyLOVcUurz7a2-84">
          <mxGeometry relative="1" as="geometry" />
        </mxCell>
        <mxCell id="SWzxU_4cyLOVcUurz7a2-83" value="4" style="whiteSpace=wrap;html=1;aspect=fixed;" vertex="1" parent="1">
          <mxGeometry x="340" y="510" width="50" height="50" as="geometry" />
        </mxCell>
        <mxCell id="SWzxU_4cyLOVcUurz7a2-84" value="5" style="whiteSpace=wrap;html=1;aspect=fixed;" vertex="1" parent="1">
          <mxGeometry x="430" y="510" width="50" height="50" as="geometry" />
        </mxCell>
        <mxCell id="SWzxU_4cyLOVcUurz7a2-85" value="null" style="text;html=1;resizable=0;autosize=1;align=center;verticalAlign=middle;points=[];fillColor=none;strokeColor=none;rounded=0;" vertex="1" parent="1">
          <mxGeometry x="25" y="525" width="30" height="20" as="geometry" />
        </mxCell>
        <mxCell id="SWzxU_4cyLOVcUurz7a2-86" value="pre" style="text;html=1;resizable=0;autosize=1;align=center;verticalAlign=middle;points=[];fillColor=none;strokeColor=none;rounded=0;" vertex="1" parent="1">
          <mxGeometry x="270" y="610" width="30" height="20" as="geometry" />
        </mxCell>
        <mxCell id="SWzxU_4cyLOVcUurz7a2-87" value="" style="endArrow=classic;html=1;rounded=0;entryX=0.5;entryY=1;entryDx=0;entryDy=0;" edge="1" parent="1" target="SWzxU_4cyLOVcUurz7a2-81">
          <mxGeometry width="50" height="50" relative="1" as="geometry">
            <mxPoint x="285" y="610" as="sourcePoint" />
            <mxPoint x="39.57999999999993" y="550" as="targetPoint" />
            <Array as="points" />
          </mxGeometry>
        </mxCell>
        <mxCell id="SWzxU_4cyLOVcUurz7a2-89" value="" style="endArrow=classic;html=1;rounded=0;entryX=0.5;entryY=1;entryDx=0;entryDy=0;" edge="1" parent="1" target="SWzxU_4cyLOVcUurz7a2-83">
          <mxGeometry width="50" height="50" relative="1" as="geometry">
            <mxPoint x="365" y="610" as="sourcePoint" />
            <mxPoint x="290" y="560.0000000000001" as="targetPoint" />
          </mxGeometry>
        </mxCell>
        <mxCell id="SWzxU_4cyLOVcUurz7a2-90" value="cur" style="text;html=1;resizable=0;autosize=1;align=center;verticalAlign=middle;points=[];fillColor=none;strokeColor=none;rounded=0;" vertex="1" parent="1">
          <mxGeometry x="350" y="610" width="30" height="20" as="geometry" />
        </mxCell>
        <mxCell id="SWzxU_4cyLOVcUurz7a2-92" value="null" style="text;html=1;resizable=0;autosize=1;align=center;verticalAlign=middle;points=[];fillColor=none;strokeColor=none;rounded=0;" vertex="1" parent="1">
          <mxGeometry x="310" y="540" width="30" height="20" as="geometry" />
        </mxCell>
        <mxCell id="SWzxU_4cyLOVcUurz7a2-93" style="edgeStyle=orthogonalEdgeStyle;rounded=0;orthogonalLoop=1;jettySize=auto;html=1;exitX=0;exitY=0.5;exitDx=0;exitDy=0;" edge="1" parent="1" source="SWzxU_4cyLOVcUurz7a2-94" target="SWzxU_4cyLOVcUurz7a2-102">
          <mxGeometry relative="1" as="geometry" />
        </mxCell>
        <mxCell id="SWzxU_4cyLOVcUurz7a2-94" value="1" style="whiteSpace=wrap;html=1;aspect=fixed;" vertex="1" parent="1">
          <mxGeometry x="80" y="660" width="50" height="50" as="geometry" />
        </mxCell>
        <mxCell id="SWzxU_4cyLOVcUurz7a2-95" style="edgeStyle=orthogonalEdgeStyle;rounded=0;orthogonalLoop=1;jettySize=auto;html=1;exitX=0;exitY=0.5;exitDx=0;exitDy=0;entryX=1;entryY=0.5;entryDx=0;entryDy=0;" edge="1" parent="1" source="SWzxU_4cyLOVcUurz7a2-96" target="SWzxU_4cyLOVcUurz7a2-94">
          <mxGeometry relative="1" as="geometry" />
        </mxCell>
        <mxCell id="SWzxU_4cyLOVcUurz7a2-96" value="2" style="whiteSpace=wrap;html=1;aspect=fixed;" vertex="1" parent="1">
          <mxGeometry x="170" y="660" width="50" height="50" as="geometry" />
        </mxCell>
        <mxCell id="SWzxU_4cyLOVcUurz7a2-97" value="" style="edgeStyle=orthogonalEdgeStyle;rounded=0;orthogonalLoop=1;jettySize=auto;html=1;" edge="1" parent="1" source="SWzxU_4cyLOVcUurz7a2-98" target="SWzxU_4cyLOVcUurz7a2-96">
          <mxGeometry relative="1" as="geometry" />
        </mxCell>
        <mxCell id="SWzxU_4cyLOVcUurz7a2-98" value="3" style="whiteSpace=wrap;html=1;aspect=fixed;" vertex="1" parent="1">
          <mxGeometry x="260" y="660" width="50" height="50" as="geometry" />
        </mxCell>
        <mxCell id="SWzxU_4cyLOVcUurz7a2-109" value="" style="edgeStyle=orthogonalEdgeStyle;rounded=0;orthogonalLoop=1;jettySize=auto;html=1;" edge="1" parent="1" source="SWzxU_4cyLOVcUurz7a2-100" target="SWzxU_4cyLOVcUurz7a2-98">
          <mxGeometry relative="1" as="geometry" />
        </mxCell>
        <mxCell id="SWzxU_4cyLOVcUurz7a2-100" value="4" style="whiteSpace=wrap;html=1;aspect=fixed;" vertex="1" parent="1">
          <mxGeometry x="340" y="660" width="50" height="50" as="geometry" />
        </mxCell>
        <mxCell id="SWzxU_4cyLOVcUurz7a2-101" value="5" style="whiteSpace=wrap;html=1;aspect=fixed;" vertex="1" parent="1">
          <mxGeometry x="430" y="660" width="50" height="50" as="geometry" />
        </mxCell>
        <mxCell id="SWzxU_4cyLOVcUurz7a2-102" value="null" style="text;html=1;resizable=0;autosize=1;align=center;verticalAlign=middle;points=[];fillColor=none;strokeColor=none;rounded=0;" vertex="1" parent="1">
          <mxGeometry x="25" y="675" width="30" height="20" as="geometry" />
        </mxCell>
        <mxCell id="SWzxU_4cyLOVcUurz7a2-103" value="pre" style="text;html=1;resizable=0;autosize=1;align=center;verticalAlign=middle;points=[];fillColor=none;strokeColor=none;rounded=0;" vertex="1" parent="1">
          <mxGeometry x="340" y="760" width="30" height="20" as="geometry" />
        </mxCell>
        <mxCell id="SWzxU_4cyLOVcUurz7a2-104" value="" style="endArrow=classic;html=1;rounded=0;entryX=0.38;entryY=1.047;entryDx=0;entryDy=0;entryPerimeter=0;" edge="1" parent="1" target="SWzxU_4cyLOVcUurz7a2-100">
          <mxGeometry width="50" height="50" relative="1" as="geometry">
            <mxPoint x="359" y="760" as="sourcePoint" />
            <mxPoint x="39.57999999999993" y="700" as="targetPoint" />
            <Array as="points" />
          </mxGeometry>
        </mxCell>
        <mxCell id="SWzxU_4cyLOVcUurz7a2-105" value="" style="endArrow=classic;html=1;rounded=0;entryX=0.5;entryY=1;entryDx=0;entryDy=0;" edge="1" parent="1" target="SWzxU_4cyLOVcUurz7a2-101">
          <mxGeometry width="50" height="50" relative="1" as="geometry">
            <mxPoint x="455" y="760" as="sourcePoint" />
            <mxPoint x="290" y="710.0000000000001" as="targetPoint" />
          </mxGeometry>
        </mxCell>
        <mxCell id="SWzxU_4cyLOVcUurz7a2-106" value="cur" style="text;html=1;resizable=0;autosize=1;align=center;verticalAlign=middle;points=[];fillColor=none;strokeColor=none;rounded=0;" vertex="1" parent="1">
          <mxGeometry x="440" y="760" width="30" height="20" as="geometry" />
        </mxCell>
        <mxCell id="SWzxU_4cyLOVcUurz7a2-107" value="null" style="text;html=1;resizable=0;autosize=1;align=center;verticalAlign=middle;points=[];fillColor=none;strokeColor=none;rounded=0;" vertex="1" parent="1">
          <mxGeometry x="398.5" y="695" width="30" height="20" as="geometry" />
        </mxCell>
        <mxCell id="SWzxU_4cyLOVcUurz7a2-112" style="edgeStyle=orthogonalEdgeStyle;rounded=0;orthogonalLoop=1;jettySize=auto;html=1;exitX=0;exitY=0.5;exitDx=0;exitDy=0;" edge="1" parent="1" source="SWzxU_4cyLOVcUurz7a2-113" target="SWzxU_4cyLOVcUurz7a2-121">
          <mxGeometry relative="1" as="geometry" />
        </mxCell>
        <mxCell id="SWzxU_4cyLOVcUurz7a2-113" value="1" style="whiteSpace=wrap;html=1;aspect=fixed;" vertex="1" parent="1">
          <mxGeometry x="80" y="800" width="50" height="50" as="geometry" />
        </mxCell>
        <mxCell id="SWzxU_4cyLOVcUurz7a2-114" style="edgeStyle=orthogonalEdgeStyle;rounded=0;orthogonalLoop=1;jettySize=auto;html=1;exitX=0;exitY=0.5;exitDx=0;exitDy=0;entryX=1;entryY=0.5;entryDx=0;entryDy=0;" edge="1" parent="1" source="SWzxU_4cyLOVcUurz7a2-115" target="SWzxU_4cyLOVcUurz7a2-113">
          <mxGeometry relative="1" as="geometry" />
        </mxCell>
        <mxCell id="SWzxU_4cyLOVcUurz7a2-115" value="2" style="whiteSpace=wrap;html=1;aspect=fixed;" vertex="1" parent="1">
          <mxGeometry x="170" y="800" width="50" height="50" as="geometry" />
        </mxCell>
        <mxCell id="SWzxU_4cyLOVcUurz7a2-116" value="" style="edgeStyle=orthogonalEdgeStyle;rounded=0;orthogonalLoop=1;jettySize=auto;html=1;" edge="1" parent="1" source="SWzxU_4cyLOVcUurz7a2-117" target="SWzxU_4cyLOVcUurz7a2-115">
          <mxGeometry relative="1" as="geometry" />
        </mxCell>
        <mxCell id="SWzxU_4cyLOVcUurz7a2-117" value="3" style="whiteSpace=wrap;html=1;aspect=fixed;" vertex="1" parent="1">
          <mxGeometry x="260" y="800" width="50" height="50" as="geometry" />
        </mxCell>
        <mxCell id="SWzxU_4cyLOVcUurz7a2-118" value="" style="edgeStyle=orthogonalEdgeStyle;rounded=0;orthogonalLoop=1;jettySize=auto;html=1;" edge="1" parent="1" source="SWzxU_4cyLOVcUurz7a2-119" target="SWzxU_4cyLOVcUurz7a2-117">
          <mxGeometry relative="1" as="geometry" />
        </mxCell>
        <mxCell id="SWzxU_4cyLOVcUurz7a2-119" value="4" style="whiteSpace=wrap;html=1;aspect=fixed;" vertex="1" parent="1">
          <mxGeometry x="340" y="800" width="50" height="50" as="geometry" />
        </mxCell>
        <mxCell id="SWzxU_4cyLOVcUurz7a2-128" value="" style="edgeStyle=orthogonalEdgeStyle;rounded=0;orthogonalLoop=1;jettySize=auto;html=1;" edge="1" parent="1" source="SWzxU_4cyLOVcUurz7a2-120" target="SWzxU_4cyLOVcUurz7a2-119">
          <mxGeometry relative="1" as="geometry" />
        </mxCell>
        <mxCell id="SWzxU_4cyLOVcUurz7a2-120" value="5" style="whiteSpace=wrap;html=1;aspect=fixed;" vertex="1" parent="1">
          <mxGeometry x="430" y="800" width="50" height="50" as="geometry" />
        </mxCell>
        <mxCell id="SWzxU_4cyLOVcUurz7a2-121" value="null" style="text;html=1;resizable=0;autosize=1;align=center;verticalAlign=middle;points=[];fillColor=none;strokeColor=none;rounded=0;" vertex="1" parent="1">
          <mxGeometry x="25" y="815" width="30" height="20" as="geometry" />
        </mxCell>
        <mxCell id="SWzxU_4cyLOVcUurz7a2-122" value="pre" style="text;html=1;resizable=0;autosize=1;align=center;verticalAlign=middle;points=[];fillColor=none;strokeColor=none;rounded=0;" vertex="1" parent="1">
          <mxGeometry x="440" y="900" width="30" height="20" as="geometry" />
        </mxCell>
        <mxCell id="SWzxU_4cyLOVcUurz7a2-123" value="" style="endArrow=classic;html=1;rounded=0;entryX=0.5;entryY=1;entryDx=0;entryDy=0;" edge="1" parent="1" target="SWzxU_4cyLOVcUurz7a2-120">
          <mxGeometry width="50" height="50" relative="1" as="geometry">
            <mxPoint x="455" y="900" as="sourcePoint" />
            <mxPoint x="39.57999999999993" y="840" as="targetPoint" />
            <Array as="points" />
          </mxGeometry>
        </mxCell>
        <mxCell id="SWzxU_4cyLOVcUurz7a2-124" value="" style="endArrow=classic;html=1;rounded=0;" edge="1" parent="1">
          <mxGeometry width="50" height="50" relative="1" as="geometry">
            <mxPoint x="535" y="890" as="sourcePoint" />
            <mxPoint x="535" y="840" as="targetPoint" />
          </mxGeometry>
        </mxCell>
        <mxCell id="SWzxU_4cyLOVcUurz7a2-125" value="cur" style="text;html=1;resizable=0;autosize=1;align=center;verticalAlign=middle;points=[];fillColor=none;strokeColor=none;rounded=0;" vertex="1" parent="1">
          <mxGeometry x="525" y="890" width="30" height="20" as="geometry" />
        </mxCell>
        <mxCell id="SWzxU_4cyLOVcUurz7a2-127" value="null" style="text;html=1;align=center;verticalAlign=middle;resizable=0;points=[];autosize=1;strokeColor=none;fillColor=none;" vertex="1" parent="1">
          <mxGeometry x="520" y="820" width="30" height="20" as="geometry" />
        </mxCell>
      </root>
    </mxGraphModel>
  </diagram>
</mxfile>
